
<svg version="1.1" id="underLogo" xmlns="http://www.w3.org/2000/svg" xmlns:xlink="http://www.w3.org/1999/xlink" x="0px" y="0px"
	 viewBox="0 0 304.5 340.4" style="enable-background:new 0 0 304.5 340.4;" xml:space="preserve">
<style type="text/css">
	.st0{fill:none;stroke:#fff;stroke-width:2;stroke-miterlimit:10;}
</style>
<g id="Layer_1">
	<g id="FNqk6L.tif">
		<g>
			<path class="st0" d="M289.4,15.1c-36.1,49.4-70.9,97-105.8,144.7c-32.5,44.4-67.2,87.5-96.8,133.8
				c-18.5,28.9-40.5,37.1-72.1,29.4c-1.6-8.2,5.6-12.6,9.5-18.1c63-86.3,127.5-171.6,188.5-259.2C232.3,17.4,253,5.1,289.4,15.1z"/>
		</g>
	</g>
</g>
<g id="Layer_2">
	<path class="st1" d="M51.6,93.3c-8.2,0-16.3-0.3-24.5,0.1C16.3,93.8,8.4,93,8.7,78.3c0.3-12.9,2.7-20,17.6-19.1
		c15.4,1,31,0.7,46.5,0c13.3-0.6,21.1,1.3,21,18.1c-0.1,16.3-8.4,16.6-20,16C66.3,92.9,59,93.3,51.6,93.3z"/>
</g>
<g id="Layer_3">
	<path class="st2" d="M246.2,283.5c-8.2,0-16.5-0.6-24.6,0.1c-14.5,1.2-15.1-7.3-15.5-18.4c-0.4-11.8,3.6-15.9,15.4-15.4
		c18,0.8,36.1,0.8,54.1,0c11.8-0.5,15.8,3.5,15.3,15.3c-0.5,10.9-0.5,19.7-15.2,18.5C265.9,282.9,256,283.5,246.2,283.5z"/>
</g>
<g id="Layer_4">
	<path class="st3" d="M102.4,46.1c-25.8,0-51.6-0.6-77.4,0.2C10.3,46.9,8.4,40.3,8.9,29.8c0.4-9.4-0.6-18,15-17.9
		c52.5,0.4,105,0.6,157.5-0.1c17.9-0.2,14.8,9.7,15.8,19.5c1.2,12.3-4.7,15.4-17.5,15.1C154,45.7,128.2,46.2,102.4,46.1z"/>
</g>
<g id="Layer_5">
	<path class="st4" d="M198.1,298c25.6,0,51.2,0.5,76.8-0.2c12.3-0.4,15.9,3.8,15.2,14.2c-0.6,9.3,1.1,17.8-14.7,17.6
		c-51.2-0.6-102.4-0.5-153.6,0c-13.2,0.1-17.3-4.4-17.3-16c0-11.3,3.1-16.3,16.8-15.8C146.9,298.6,172.5,298,198.1,298z"/>
</g>
</svg>
